ffmpeg started on 2016-12-09 at 01:02:56
Report written to "Output/x264/results/ffmpeg/crowd_run_2160p50veryslow13000k.log"
Command line:
Tools/ffmpeg/ffmpeg -benchmark -y -i Input/y4m/crowd_run_2160p50.y4m -c:v libx264 -preset veryslow -b:v 13000k -an Output/x264/encoded/crowd_run_2160p50veryslow13000k.mkv
ffmpeg version N-82227-gdb23fde Copyright (c) 2000-2016 the FFmpeg developers
  built with gcc 5.4.0 (Ubuntu 5.4.0-6ubuntu1~16.04.2) 20160609
  configuration: --prefix=/home/jaroslav/ffmpeg_build --pkg-config-flags=--static --extra-cflags=-I/home/jaroslav/ffmpeg_build/include --extra-ldflags=-L/home/jaroslav/ffmpeg_build/lib --bindir=/home/jaroslav/bin --enable-gpl --enable-libass --enable-libfdk-aac --enable-libfreetype --enable-libmp3lame --enable-libopus --enable-libtheora --enable-libvorbis --enable-libvpx --enable-libx264 --enable-libx265 --enable-nvenc --enable-libmfx --enable-libxvid --enable-libgsm --enable-libopencore-amrnb --enable-version3 --enable-nonfree
  libavutil      55. 35.100 / 55. 35.100
  libavcodec     57. 66.101 / 57. 66.101
  libavformat    57. 57.100 / 57. 57.100
  libavdevice    57.  2.100 / 57.  2.100
  libavfilter     6. 66.100 /  6. 66.100
  libswscale      4.  3.100 /  4.  3.100
  libswresample   2.  4.100 /  2.  4.100
  libpostproc    54.  2.100 / 54.  2.100
Input #0, yuv4mpegpipe, from 'Input/y4m/crowd_run_2160p50.y4m':
  Duration: 00:00:10.00, start: 0.000000, bitrate: 4976642 kb/s
    Stream #0:0: Video: rawvideo (I420 / 0x30323449), yuv420p(progressive), 3840x2160, SAR 1:1 DAR 16:9, 50 fps, 50 tbr, 50 tbn, 50 tbc
[libx264 @ 0x43191c0] using SAR=1/1
[libx264 @ 0x43191c0] DPB size (16 frames, 518400 mbs) > level limit (5 frames, 184320 mbs)
[libx264 @ 0x43191c0] using cpu capabilities: MMX2 SSE2Fast SSSE3 SSE4.2 AVX FMA3 AVX2 LZCNT BMI2
[libx264 @ 0x43191c0] profile High, level 5.2
[libx264 @ 0x43191c0] 264 - core 148 - H.264/MPEG-4 AVC codec - Copyleft 2003-2016 - http://www.videolan.org/x264.html - options: cabac=1 ref=16 deblock=1:0:0 analyse=0x3:0x133 me=umh subme=10 psy=1 psy_rd=1.00:0.00 mixed_ref=1 me_range=24 chroma_me=1 trellis=2 8x8dct=1 cqm=0 deadzone=21,11 fast_pskip=1 chroma_qp_offset=-2 threads=6 lookahead_threads=1 sliced_threads=0 nr=0 decimate=1 interlaced=0 bluray_compat=0 constrained_intra=0 bframes=8 b_pyramid=2 b_adapt=2 b_bias=0 direct=3 weightb=1 open_gop=0 weightp=2 keyint=250 keyint_min=25 scenecut=40 intra_refresh=0 rc_lookahead=60 rc=abr mbtree=1 bitrate=13000 ratetol=1.0 qcomp=0.60 qpmin=0 qpmax=69 qpstep=4 ip_ratio=1.40 aq=1:1.00
Output #0, matroska, to 'Output/x264/encoded/crowd_run_2160p50veryslow13000k.mkv':
  Metadata:
    encoder         : Lavf57.57.100
    Stream #0:0: Video: h264 (libx264) (H264 / 0x34363248), yuv420p, 3840x2160 [SAR 1:1 DAR 16:9], q=-1--1, 13000 kb/s, 50 fps, 1k tbn, 50 tbc
    Metadata:
      encoder         : Lavc57.66.101 libx264
    Side data:
      cpb: bitrate max/min/avg: 0/0/13000000 buffer size: 0 vbv_delay: -1
Stream mapping:
  Stream #0:0 -> #0:0 (rawvideo (native) -> h264 (libx264))
Press [q] to stop, [?] for help
frame=    9 fps=0.0 q=0.0 size=       0kB time=00:00:00.00 bitrate=N/A speed=   0x    frame=   23 fps= 22 q=0.0 size=       0kB time=00:00:00.00 bitrate=N/A speed=   0x    frame=   32 fps= 20 q=0.0 size=       0kB time=00:00:00.00 bitrate=N/A speed=   0x    frame=   39 fps= 19 q=0.0 size=       0kB time=00:00:00.00 bitrate=N/A speed=   0x    frame=   46 fps= 18 q=0.0 size=       0kB time=00:00:00.00 bitrate=N/A speed=   0x    frame=   53 fps= 17 q=0.0 size=       0kB time=00:00:00.00 bitrate=N/A speed=   0x    frame=   60 fps= 17 q=0.0 size=       0kB time=00:00:00.00 bitrate=N/A speed=   0x    frame=   68 fps= 16 q=0.0 size=       0kB time=00:00:00.00 bitrate=N/A speed=   0x    frame=   72 fps=6.2 q=0.0 size=       0kB time=00:00:00.00 bitrate=N/A speed=   0x    frame=   77 fps=5.5 q=40.0 size=       1kB time=-00:00:00.01 bitrate=N/A speed=N/A    frame=   78 fps=5.1 q=36.0 size=       1kB time=00:00:00.00 bitrate=5888.0kbits/s speed=6.48e-05x    frame=   79 fps=4.9 q=34.0 size=       1kB time=00:00:00.02 bitrate= 280.4kbits/s speed=0.00131x    frame=   84 fps=4.7 q=46.0 size=       1kB time=00:00:00.12 bitrate=  48.7kbits/s speed=0.0067x    frame=   85 fps=4.6 q=49.0 size=       1kB time=00:00:00.14 bitrate=  41.8kbits/s speed=0.0076x    frame=   88 fps=4.6 q=48.0 size=       1kB time=00:00:00.20 bitrate=  29.3kbits/s speed=0.0105x    frame=   90 fps=4.5 q=48.0 size=       1kB time=00:00:00.24 bitrate=  24.4kbits/s speed=0.0121x    frame=   91 fps=4.4 q=48.0 size=       1kB time=00:00:00.26 bitrate=  22.6kbits/s speed=0.0126x    frame=   92 fps=4.2 q=48.0 size=       1kB time=00:00:00.28 bitrate=  21.0kbits/s speed=0.0129x    frame=   93 fps=4.2 q=47.0 size=       1kB time=00:00:00.30 bitrate=  19.6kbits/s speed=0.0135x    frame=   95 fps=4.1 q=47.0 size=       1kB time=00:00:00.34 bitrate=  17.3kbits/s speed=0.0146x    frame=   97 fps=4.0 q=46.0 size=       1kB time=00:00:00.38 bitrate=  15.5kbits/s speed=0.0156x    frame=   99 fps=3.8 q=47.0 size=       1kB time=00:00:00.42 bitrate=  14.0kbits/s speed=0.0162x    frame=  100 fps=3.7 q=46.0 size=       1kB time=00:00:00.44 bitrate=  13.4kbits/s speed=0.0165x    frame=  101 fps=3.7 q=46.0 size=       1kB time=00:00:00.46 bitrate=  12.8kbits/s speed=0.0168x    frame=  103 fps=3.5 q=46.0 size=       1kB time=00:00:00.50 bitrate=  11.8kbits/s speed=0.0171x    frame=  104 fps=3.5 q=46.0 size=       1kB time=00:00:00.52 bitrate=  11.3kbits/s speed=0.0173x    frame=  107 fps=3.3 q=46.0 size=       1kB time=00:00:00.58 bitrate=  10.1kbits/s speed=0.0177x    frame=  108 fps=3.2 q=46.0 size=       1kB time=00:00:00.60 bitrate=   9.8kbits/s speed=0.018x    frame=  109 fps=3.2 q=46.0 size=       1kB time=00:00:00.62 bitrate=   9.5kbits/s speed=0.0182x    frame=  111 fps=3.1 q=46.0 size=       1kB time=00:00:00.66 bitrate=   8.9kbits/s speed=0.0182x    frame=  112 fps=3.0 q=46.0 size=       1kB time=00:00:00.68 bitrate=   8.6kbits/s speed=0.0184x    frame=  113 fps=3.0 q=46.0 size=       1kB time=00:00:00.70 bitrate=   8.4kbits/s speed=0.0187x    frame=  115 fps=2.9 q=45.0 size=       1kB time=00:00:00.74 bitrate=   7.9kbits/s speed=0.0187x    frame=  116 fps=2.9 q=46.0 size=       1kB time=00:00:00.76 bitrate=   7.7kbits/s speed=0.0189x    frame=  118 fps=2.9 q=45.0 size=       1kB time=00:00:00.80 bitrate=   7.4kbits/s speed=0.0196x    frame=  119 fps=2.8 q=45.0 size=       1kB time=00:00:00.82 bitrate=   7.2kbits/s speed=0.0195x    frame=  120 fps=2.8 q=45.0 size=       1kB time=00:00:00.84 bitrate=   7.0kbits/s speed=0.0193x    frame=  121 fps=2.7 q=45.0 size=       1kB time=00:00:00.86 bitrate=   6.8kbits/s speed=0.0193x    frame=  122 fps=2.7 q=45.0 size=       1kB time=00:00:00.88 bitrate=   6.7kbits/s speed=0.0194x    frame=  125 fps=2.6 q=45.0 size=       1kB time=00:00:00.94 bitrate=   6.3kbits/s speed=0.0198x    frame=  127 fps=2.6 q=45.0 size=       1kB time=00:00:00.98 bitrate=   6.0kbits/s speed=0.0201x    frame=  128 fps=2.5 q=45.0 size=       1kB time=00:00:01.00 bitrate=   5.9kbits/s speed=0.0196x    frame=  129 fps=2.5 q=45.0 size=       1kB time=00:00:01.02 bitrate=   5.8kbits/s speed=0.0197x    frame=  130 fps=2.5 q=45.0 size=       1kB time=00:00:01.04 bitrate=   5.7kbits/s speed=0.0199x    frame=  133 fps=2.5 q=45.0 size=       1kB time=00:00:01.10 bitrate=   5.3kbits/s speed=0.0203x    frame=  134 fps=2.4 q=45.0 size=       1kB time=00:00:01.12 bitrate=   5.3kbits/s speed=0.0199x    frame=  136 fps=2.4 q=44.0 size=       1kB time=00:00:01.16 bitrate=   5.1kbits/s speed=0.0204x    frame=  137 fps=2.4 q=45.0 size=       1kB time=00:00:01.18 bitrate=   5.0kbits/s speed=0.0204x    frame=  138 fps=2.4 q=44.0 size=       1kB time=00:00:01.20 bitrate=   4.9kbits/s speed=0.0205x    frame=  139 fps=2.3 q=44.0 size=       1kB time=00:00:01.22 bitrate=   4.8kbits/s speed=0.0206x    frame=  140 fps=2.3 q=44.0 size=       1kB time=00:00:01.24 bitrate=   4.7kbits/s speed=0.0208x    frame=  141 fps=2.3 q=44.0 size=       1kB time=00:00:01.26 bitrate=   4.7kbits/s speed=0.0203x    frame=  142 fps=2.3 q=44.0 size=       1kB time=00:00:01.28 bitrate=   4.6kbits/s speed=0.0204x    frame=  143 fps=2.2 q=44.0 size=       1kB time=00:00:01.30 bitrate=   4.5kbits/s speed=0.0205x    frame=  145 fps=2.2 q=44.0 size=       1kB time=00:00:01.34 bitrate=   4.4kbits/s speed=0.0205x    frame=  146 fps=2.2 q=44.0 size=       1kB time=00:00:01.36 bitrate=   4.3kbits/s speed=0.0205x    frame=  147 fps=2.2 q=44.0 size=       1kB time=00:00:01.38 bitrate=   4.3kbits/s speed=0.0206x    frame=  150 fps=2.1 q=44.0 size=       1kB time=00:00:01.44 bitrate=   4.1kbits/s speed=0.0204x    frame=  151 fps=2.1 q=44.0 size=       1kB time=00:00:01.46 bitrate=   4.0kbits/s speed=0.0205x    frame=  153 fps=2.1 q=44.0 size=       1kB time=00:00:01.50 bitrate=   3.9kbits/s speed=0.0208x    frame=  156 fps=2.1 q=44.0 size=       1kB time=00:00:01.56 bitrate=   3.8kbits/s speed=0.0206x    frame=  157 fps=2.1 q=44.0 size=       1kB time=00:00:01.58 bitrate=   3.7kbits/s speed=0.0207x    frame=  158 fps=2.0 q=44.0 size=       1kB time=00:00:01.60 bitrate=   3.7kbits/s speed=0.0207x    frame=  160 fps=2.0 q=44.0 size=       1kB time=00:00:01.64 bitrate=   3.6kbits/s speed=0.021x    frame=  161 fps=2.0 q=44.0 size=       1kB time=00:00:01.66 bitrate=   3.5kbits/s speed=0.021x    frame=  162 fps=2.0 q=44.0 size=       1kB time=00:00:01.68 bitrate=   3.5kbits/s speed=0.0211x    frame=  164 fps=2.0 q=44.0 size=       1kB time=00:00:01.72 bitrate=   3.4kbits/s speed=0.0207x    frame=  165 fps=2.0 q=44.0 size=       1kB time=00:00:01.74 bitrate=   3.4kbits/s speed=0.0208x    frame=  167 fps=2.0 q=44.0 size=       1kB time=00:00:01.78 bitrate=   3.3kbits/s speed=0.0211x    frame=  168 fps=2.0 q=44.0 size=       1kB time=00:00:01.80 bitrate=   3.3kbits/s speed=0.0211x    frame=  169 fps=2.0 q=44.0 size=       1kB time=00:00:01.82 bitrate=   3.2kbits/s speed=0.0211x    frame=  170 fps=2.0 q=44.0 size=       1kB time=00:00:01.84 bitrate=   3.2kbits/s speed=0.0211x    frame=  172 fps=1.9 q=43.0 size=       1kB time=00:00:01.88 bitrate=   3.1kbits/s speed=0.0208x    frame=  173 fps=1.9 q=44.0 size=       1kB time=00:00:01.90 bitrate=   3.1kbits/s speed=0.0209x    frame=  175 fps=1.9 q=43.0 size=       1kB time=00:00:01.94 bitrate=   3.0kbits/s speed=0.0212x    frame=  178 fps=1.9 q=43.0 size=       1kB time=00:00:02.00 bitrate=   2.9kbits/s speed=0.021x    frame=  179 fps=1.9 q=43.0 size=       1kB time=00:00:02.02 bitrate=   2.9kbits/s speed=0.021x    frame=  182 fps=1.8 q=43.0 size=       1kB time=00:00:02.08 bitrate=   2.8kbits/s speed=0.0211x    frame=  183 fps=1.8 q=43.0 size=       1kB time=00:00:02.10 bitrate=   2.8kbits/s speed=0.0212x    frame=  184 fps=1.8 q=43.0 size=       1kB time=00:00:02.12 bitrate=   2.8kbits/s speed=0.0212x    frame=  186 fps=1.8 q=43.0 size=       1kB time=00:00:02.16 bitrate=   2.7kbits/s speed=0.0211x    frame=  187 fps=1.8 q=43.0 size=       1kB time=00:00:02.18 bitrate=   2.7kbits/s speed=0.0211x    frame=  188 fps=1.8 q=43.0 size=       1kB time=00:00:02.20 bitrate=   2.7kbits/s speed=0.0211x    frame=  191 fps=1.8 q=43.0 size=       1kB time=00:00:02.26 bitrate=   2.6kbits/s speed=0.0212x    frame=  192 fps=1.8 q=43.0 size=       1kB time=00:00:02.28 bitrate=   2.6kbits/s speed=0.021x    frame=  193 fps=1.8 q=43.0 size=       1kB time=00:00:02.30 bitrate=   2.6kbits/s speed=0.0211x    frame=  196 fps=1.8 q=43.0 size=       1kB time=00:00:02.36 bitrate=   2.5kbits/s speed=0.0212x    frame=  197 fps=1.8 q=43.0 size=       1kB time=00:00:02.38 bitrate=   2.5kbits/s speed=0.0213x    frame=  198 fps=1.8 q=43.0 size=       1kB time=00:00:02.40 bitrate=   2.5kbits/s speed=0.0213x    frame=  200 fps=1.7 q=43.0 size=       1kB time=00:00:02.44 bitrate=   2.4kbits/s speed=0.0213x    frame=  201 fps=1.7 q=43.0 size=       1kB time=00:00:02.46 bitrate=   2.4kbits/s speed=0.0213x    frame=  202 fps=1.7 q=43.0 size=       1kB time=00:00:02.48 bitrate=   2.4kbits/s speed=0.0213x    frame=  205 fps=1.7 q=43.0 size=       1kB time=00:00:02.54 bitrate=   2.3kbits/s speed=0.0212x    frame=  206 fps=1.7 q=43.0 size=       1kB time=00:00:02.56 bitrate=   2.3kbits/s speed=0.0212x    frame=  207 fps=1.7 q=43.0 size=       1kB time=00:00:02.58 bitrate=   2.3kbits/s speed=0.0213x    frame=  210 fps=1.7 q=43.0 size=       1kB time=00:00:02.64 bitrate=   2.2kbits/s speed=0.0214x    frame=  211 fps=1.7 q=43.0 size=       1kB time=00:00:02.66 bitrate=   2.2kbits/s speed=0.0212x    frame=  213 fps=1.7 q=43.0 size=       1kB time=00:00:02.70 bitrate=   2.2kbits/s speed=0.0214x    frame=  214 fps=1.7 q=43.0 size=       1kB time=00:00:02.72 bitrate=   2.2kbits/s speed=0.0214x    frame=  215 fps=1.7 q=43.0 size=       1kB time=00:00:02.74 bitrate=   2.1kbits/s speed=0.0213x    frame=  216 fps=1.7 q=43.0 size=       1kB time=00:00:02.76 bitrate=   2.1kbits/s speed=0.0214x    frame=  217 fps=1.7 q=43.0 size=       1kB time=00:00:02.78 bitrate=   2.1kbits/s speed=0.0214x    frame=  218 fps=1.7 q=43.0 size=       1kB time=00:00:02.80 bitrate=   2.1kbits/s speed=0.0214x    frame=  219 fps=1.7 q=43.0 size=       1kB time=00:00:02.82 bitrate=   2.1kbits/s speed=0.0214x    frame=  220 fps=1.6 q=43.0 size=       1kB time=00:00:02.84 bitrate=   2.1kbits/s speed=0.0213x    frame=  222 fps=1.7 q=43.0 size=       1kB time=00:00:02.88 bitrate=   2.0kbits/s speed=0.0215x    frame=  223 fps=1.7 q=43.0 size=       1kB time=00:00:02.90 bitrate=   2.0kbits/s speed=0.0215x    frame=  224 fps=1.6 q=43.0 size=       1kB time=00:00:02.92 bitrate=   2.0kbits/s speed=0.0213x    frame=  225 fps=1.6 q=43.0 size=       1kB time=00:00:02.94 bitrate=   2.0kbits/s speed=0.0213x    frame=  226 fps=1.6 q=43.0 size=       1kB time=00:00:02.96 bitrate=   2.0kbits/s speed=0.0213x    frame=  229 fps=1.6 q=43.0 size=    5135kB time=00:00:03.02 bitrate=13923.3kbits/s speed=0.0213x    frame=  230 fps=1.6 q=43.0 size=    5135kB time=00:00:03.04 bitrate=13831.8kbits/s speed=0.0213x    frame=  231 fps=1.6 q=43.0 size=    5135kB time=00:00:03.06 bitrate=13741.4kbits/s speed=0.0213x    frame=  234 fps=1.6 q=43.0 size=    5135kB time=00:00:03.12 bitrate=13477.2kbits/s speed=0.0215x    frame=  235 fps=1.6 q=43.0 size=    5135kB time=00:00:03.14 bitrate=13391.4kbits/s speed=0.0213x    frame=  237 fps=1.6 q=43.0 size=    5135kB time=00:00:03.18 bitrate=13223.0kbits/s speed=0.0214x    frame=  239 fps=1.6 q=43.0 size=    5135kB time=00:00:03.22 bitrate=13058.8kbits/s speed=0.0213x    frame=  240 fps=1.6 q=43.0 size=    5135kB time=00:00:03.24 bitrate=12978.2kbits/s speed=0.0213x    frame=  241 fps=1.6 q=43.0 size=    5135kB time=00:00:03.26 bitrate=12898.6kbits/s speed=0.0214x    frame=  244 fps=1.6 q=43.0 size=    5135kB time=00:00:03.32 bitrate=12665.6kbits/s speed=0.0216x    frame=  245 fps=1.6 q=43.0 size=    5135kB time=00:00:03.34 bitrate=12589.8kbits/s speed=0.0212x    frame=  246 fps=1.6 q=43.0 size=    5135kB time=00:00:03.36 bitrate=12514.8kbits/s speed=0.0213x    frame=  247 fps=1.6 q=43.0 size=    5135kB time=00:00:03.38 bitrate=12440.8kbits/s speed=0.0213x    frame=  250 fps=1.6 q=43.0 size=    5135kB time=00:00:03.44 bitrate=12223.9kbits/s speed=0.0214x    frame=  251 fps=1.5 q=43.0 size=    5135kB time=00:00:03.46 bitrate=12153.2kbits/s speed=0.0212x    frame=  252 fps=1.5 q=43.0 size=    5135kB time=00:00:03.48 bitrate=12083.4kbits/s speed=0.0213x    frame=  256 fps=1.5 q=43.0 size=    5135kB time=00:00:03.56 bitrate=11812.0kbits/s speed=0.0214x    frame=  257 fps=1.5 q=43.0 size=    5135kB time=00:00:03.58 bitrate=11746.0kbits/s speed=0.0213x    frame=  259 fps=1.5 q=42.0 size=    5135kB time=00:00:03.62 bitrate=11616.2kbits/s speed=0.0214x    frame=  260 fps=1.5 q=42.0 size=    5135kB time=00:00:03.64 bitrate=11552.4kbits/s speed=0.0213x    frame=  261 fps=1.5 q=42.0 size=    5135kB time=00:00:03.66 bitrate=11489.3kbits/s speed=0.0214x    frame=  263 fps=1.5 q=42.0 size=    5135kB time=00:00:03.70 bitrate=11365.1kbits/s speed=0.0215x    frame=  264 fps=1.5 q=42.0 size=    5135kB time=00:00:03.72 bitrate=11304.0kbits/s speed=0.0213x    frame=  265 fps=1.5 q=42.0 size=    5135kB time=00:00:03.74 bitrate=11243.6kbits/s speed=0.0214x    frame=  267 fps=1.5 q=42.0 size=    5135kB time=00:00:03.78 bitrate=11124.7kbits/s speed=0.0215x    frame=  268 fps=1.5 q=42.0 size=    5135kB time=00:00:03.80 bitrate=11066.1kbits/s speed=0.0213x    frame=  269 fps=1.5 q=42.0 size=    5135kB time=00:00:03.82 bitrate=11008.2kbits/s speed=0.0213x    frame=  270 fps=1.5 q=42.0 size=    5135kB time=00:00:03.84 bitrate=10950.9kbits/s speed=0.0213x    frame=  273 fps=1.5 q=42.0 size=    5135kB time=00:00:03.90 bitrate=10782.5kbits/s speed=0.0214x    frame=  274 fps=1.5 q=42.0 size=    5135kB time=00:00:03.92 bitrate=10727.5kbits/s speed=0.0213x    frame=  277 fps=1.5 q=42.0 size=    5135kB time=00:00:03.98 bitrate=10565.8kbits/s speed=0.0213x    frame=  278 fps=1.5 q=42.0 size=    5135kB time=00:00:04.00 bitrate=10513.0kbits/s speed=0.0213x    frame=  279 fps=1.5 q=42.0 size=    5135kB time=00:00:04.02 bitrate=10460.7kbits/s speed=0.0213x    frame=  282 fps=1.5 q=42.0 size=    5135kB time=00:00:04.08 bitrate=10306.9kbits/s speed=0.0214x    frame=  283 fps=1.5 q=42.0 size=    5135kB time=00:00:04.10 bitrate=10256.6kbits/s speed=0.0213x    frame=  285 fps=1.5 q=42.0 size=    5135kB time=00:00:04.14 bitrate=10157.5kbits/s speed=0.0215x    frame=  286 fps=1.5 q=42.0 size=    5135kB time=00:00:04.16 bitrate=10108.7kbits/s speed=0.0213x    frame=  287 fps=1.5 q=42.0 size=    5135kB time=00:00:04.18 bitrate=10060.4kbits/s speed=0.0214x    frame=  288 fps=1.5 q=42.0 size=    5135kB time=00:00:04.20 bitrate=10012.5kbits/s speed=0.0214x    frame=  290 fps=1.5 q=42.0 size=    5135kB time=00:00:04.24 bitrate=9918.0kbits/s speed=0.0213x    frame=  291 fps=1.5 q=42.0 size=    5135kB time=00:00:04.26 bitrate=9871.5kbits/s speed=0.0213x    frame=  293 fps=1.5 q=42.0 size=    5135kB time=00:00:04.30 bitrate=9779.7kbits/s speed=0.0215x    frame=  294 fps=1.4 q=42.0 size=    5135kB time=00:00:04.32 bitrate=9734.4kbits/s speed=0.0213x    frame=  295 fps=1.4 q=42.0 size=    5135kB time=00:00:04.34 bitrate=9689.6kbits/s speed=0.0213x    frame=  297 fps=1.5 q=42.0 size=    5135kB time=00:00:04.38 bitrate=9601.1kbits/s speed=0.0214x    frame=  299 fps=1.4 q=42.0 size=    5135kB time=00:00:04.42 bitrate=9514.2kbits/s speed=0.0214x    frame=  300 fps=1.4 q=42.0 size=    5135kB time=00:00:04.44 bitrate=9471.4kbits/s speed=0.0213x    frame=  301 fps=1.4 q=42.0 size=    5135kB time=00:00:04.46 bitrate=9428.9kbits/s speed=0.0214x    frame=  303 fps=1.4 q=42.0 size=    5135kB time=00:00:04.50 bitrate=9345.1kbits/s speed=0.0213x    frame=  304 fps=1.4 q=42.0 size=    5135kB time=00:00:04.52 bitrate=9303.8kbits/s speed=0.0213x    frame=  305 fps=1.4 q=42.0 size=    5135kB time=00:00:04.54 bitrate=9262.8kbits/s speed=0.0214x    frame=  307 fps=1.4 q=42.0 size=    5135kB time=00:00:04.58 bitrate=9181.9kbits/s speed=0.0213x    frame=  308 fps=1.4 q=42.0 size=    5135kB time=00:00:04.60 bitrate=9142.0kbits/s speed=0.0213x    frame=  309 fps=1.4 q=42.0 size=    5135kB time=00:00:04.62 bitrate=9102.4kbits/s speed=0.0213x    frame=  311 fps=1.4 q=42.0 size=    5135kB time=00:00:04.66 bitrate=9024.3kbits/s speed=0.0213x    frame=  312 fps=1.4 q=42.0 size=    5135kB time=00:00:04.68 bitrate=8985.8kbits/s speed=0.0213x    frame=  313 fps=1.4 q=42.0 size=    5135kB time=00:00:04.70 bitrate=8947.5kbits/s speed=0.0214x    frame=  314 fps=1.4 q=42.0 size=    5135kB time=00:00:04.72 bitrate=8909.6kbits/s speed=0.0214x    frame=  315 fps=1.4 q=42.0 size=    5135kB time=00:00:04.74 bitrate=8872.0kbits/s speed=0.0213x    frame=  316 fps=1.4 q=42.0 size=    5135kB time=00:00:04.76 bitrate=8834.8kbits/s speed=0.0213x    frame=  317 fps=1.4 q=42.0 size=    5135kB time=00:00:04.78 bitrate=8797.8kbits/s speed=0.0213x    frame=  319 fps=1.4 q=42.0 size=    5135kB time=00:00:04.82 bitrate=8724.8kbits/s speed=0.0212x    frame=  320 fps=1.4 q=42.0 size=    5135kB time=00:00:04.84 bitrate=8688.8kbits/s speed=0.0213x    frame=  321 fps=1.4 q=40.0 size=    5135kB time=00:00:04.86 bitrate=8653.0kbits/s speed=0.0213x    frame=  325 fps=1.4 q=43.0 size=    5135kB time=00:00:04.94 bitrate=8512.9kbits/s speed=0.0214x    frame=  327 fps=1.4 q=43.0 size=    8034kB time=00:00:04.98 bitrate=13212.4kbits/s speed=0.0215x    frame=  332 fps=1.4 q=43.0 size=    8034kB time=00:00:05.08 bitrate=12952.3kbits/s speed=0.0218x    frame=  334 fps=1.4 q=43.0 size=    8034kB time=00:00:05.12 bitrate=12851.2kbits/s speed=0.0219x    frame=  336 fps=1.4 q=43.0 size=    8034kB time=00:00:05.16 bitrate=12751.6kbits/s speed=0.022x    frame=  338 fps=1.4 q=43.0 size=    8034kB time=00:00:05.20 bitrate=12653.5kbits/s speed=0.0221x    frame=  341 fps=1.4 q=43.0 size=    8034kB time=00:00:05.26 bitrate=12509.2kbits/s speed=0.0221x    frame=  342 fps=1.4 q=43.0 size=    8034kB time=00:00:05.28 bitrate=12461.8kbits/s speed=0.0222x    frame=  345 fps=1.4 q=43.0 size=    8034kB time=00:00:05.34 bitrate=12321.8kbits/s speed=0.0222x    frame=  347 fps=1.4 q=43.0 size=    8034kB time=00:00:05.38 bitrate=12230.2kbits/s speed=0.0223x    frame=  349 fps=1.4 q=43.0 size=    8034kB time=00:00:05.42 bitrate=12140.0kbits/s speed=0.0223x    frame=  350 fps=1.4 q=43.0 size=    8034kB time=00:00:05.44 bitrate=12095.4kbits/s speed=0.0223x    frame=  351 fps=1.4 q=43.0 size=    8034kB time=00:00:05.46 bitrate=12051.1kbits/s speed=0.0223x    frame=  353 fps=1.4 q=43.0 size=    8034kB time=00:00:05.50 bitrate=11963.4kbits/s speed=0.0223x    frame=  354 fps=1.4 q=43.0 size=    8034kB time=00:00:05.52 bitrate=11920.1kbits/s speed=0.0223x    frame=  355 fps=1.4 q=43.0 size=    8034kB time=00:00:05.54 bitrate=11877.1kbits/s speed=0.0223x    frame=  356 fps=1.4 q=43.0 size=    8034kB time=00:00:05.56 bitrate=11834.4kbits/s speed=0.0224x    frame=  357 fps=1.4 q=43.0 size=    8034kB time=00:00:05.58 bitrate=11791.9kbits/s speed=0.0222x    frame=  358 fps=1.4 q=43.0 size=    8034kB time=00:00:05.60 bitrate=11749.8kbits/s speed=0.0223x    frame=  359 fps=1.4 q=43.0 size=    8034kB time=00:00:05.62 bitrate=11708.0kbits/s speed=0.0223x    frame=  361 fps=1.4 q=43.0 size=    8034kB time=00:00:05.66 bitrate=11625.3kbits/s speed=0.0223x    frame=  362 fps=1.4 q=43.0 size=    8034kB time=00:00:05.68 bitrate=11584.4kbits/s speed=0.0223x    frame=  363 fps=1.4 q=43.0 size=    8034kB time=00:00:05.70 bitrate=11543.7kbits/s speed=0.0223x    frame=  365 fps=1.4 q=43.0 size=    8034kB time=00:00:05.74 bitrate=11463.3kbits/s speed=0.0222x    frame=  366 fps=1.4 q=43.0 size=    8034kB time=00:00:05.76 bitrate=11423.5kbits/s speed=0.0222x    frame=  369 fps=1.4 q=43.0 size=    8034kB time=00:00:05.82 bitrate=11305.8kbits/s speed=0.0223x    frame=  370 fps=1.4 q=43.0 size=    8034kB time=00:00:05.84 bitrate=11267.1kbits/s speed=0.0223x    frame=  371 fps=1.4 q=43.0 size=    8034kB time=00:00:05.86 bitrate=11228.6kbits/s speed=0.0223x    frame=  372 fps=1.4 q=43.0 size=    8034kB time=00:00:05.88 bitrate=11190.4kbits/s speed=0.0223x    frame=  373 fps=1.4 q=43.0 size=    8034kB time=00:00:05.90 bitrate=11152.5kbits/s speed=0.0222x    frame=  374 fps=1.4 q=43.0 size=    8034kB time=00:00:05.92 bitrate=11114.8kbits/s speed=0.0222x    frame=  375 fps=1.4 q=43.0 size=    8034kB time=00:00:05.94 bitrate=11077.4kbits/s speed=0.0222x    frame=  378 fps=1.4 q=43.0 size=    8034kB time=00:00:06.00 bitrate=10966.6kbits/s speed=0.0223x    frame=  379 fps=1.4 q=43.0 size=    8034kB time=00:00:06.02 bitrate=10930.2kbits/s speed=0.0222x    frame=  380 fps=1.4 q=43.0 size=    8034kB time=00:00:06.04 bitrate=10894.0kbits/s speed=0.0222x    frame=  382 fps=1.4 q=43.0 size=    8034kB time=00:00:06.08 bitrate=10822.4kbits/s speed=0.0222x    frame=  383 fps=1.4 q=43.0 size=    8034kB time=00:00:06.10 bitrate=10786.9kbits/s speed=0.0222x    frame=  384 fps=1.4 q=43.0 size=    8034kB time=00:00:06.12 bitrate=10751.6kbits/s speed=0.0222x    frame=  386 fps=1.4 q=43.0 size=    8034kB time=00:00:06.16 bitrate=10681.8kbits/s speed=0.0222x    frame=  387 fps=1.4 q=43.0 size=    8034kB time=00:00:06.18 bitrate=10647.3kbits/s speed=0.0222x    frame=  388 fps=1.4 q=43.0 size=    8034kB time=00:00:06.20 bitrate=10612.9kbits/s speed=0.0222x    frame=  390 fps=1.4 q=43.0 size=    8034kB time=00:00:06.24 bitrate=10544.9kbits/s speed=0.0221x    frame=  391 fps=1.4 q=43.0 size=    8034kB time=00:00:06.26 bitrate=10511.2kbits/s speed=0.0222x    frame=  393 fps=1.4 q=43.0 size=    8034kB time=00:00:06.30 bitrate=10444.5kbits/s speed=0.0223x    frame=  394 fps=1.4 q=43.0 size=    8034kB time=00:00:06.32 bitrate=10411.5kbits/s speed=0.0222x    frame=  395 fps=1.4 q=43.0 size=    8034kB time=00:00:06.34 bitrate=10378.6kbits/s speed=0.0222x    frame=  397 fps=1.4 q=43.0 size=    8034kB time=00:00:06.38 bitrate=10313.6kbits/s speed=0.0223x    frame=  398 fps=1.4 q=43.0 size=    8034kB time=00:00:06.40 bitrate=10281.3kbits/s speed=0.0221x    frame=  399 fps=1.4 q=43.0 size=    8034kB time=00:00:06.42 bitrate=10249.3kbits/s speed=0.0221x    frame=  401 fps=1.4 q=43.0 size=    8034kB time=00:00:06.46 bitrate=10185.9kbits/s speed=0.0222x    frame=  402 fps=1.4 q=43.0 size=    8034kB time=00:00:06.48 bitrate=10154.4kbits/s speed=0.0221x    frame=  403 fps=1.4 q=43.0 size=    8034kB time=00:00:06.50 bitrate=10123.2kbits/s speed=0.0221x    frame=  405 fps=1.4 q=43.0 size=    8034kB time=00:00:06.54 bitrate=10061.3kbits/s speed=0.0222x    frame=  407 fps=1.4 q=43.0 size=    8034kB time=00:00:06.58 bitrate=10000.1kbits/s speed=0.0221x    frame=  408 fps=1.4 q=43.0 size=    8034kB time=00:00:06.60 bitrate=9969.8kbits/s speed=0.0221x    frame=  411 fps=1.4 q=43.0 size=    8034kB time=00:00:06.66 bitrate=9880.0kbits/s speed=0.0221x    frame=  412 fps=1.4 q=43.0 size=    8034kB time=00:00:06.68 bitrate=9850.4kbits/s speed=0.0221x    frame=  413 fps=1.4 q=43.0 size=    8034kB time=00:00:06.70 bitrate=9821.0kbits/s speed=0.0221x    frame=  415 fps=1.4 q=43.0 size=    8034kB time=00:00:06.74 bitrate=9762.8kbits/s speed=0.022x    frame=  416 fps=1.4 q=43.0 size=    8034kB time=00:00:06.76 bitrate=9733.9kbits/s speed=0.0221x    frame=  417 fps=1.4 q=43.0 size=    8034kB time=00:00:06.78 bitrate=9705.2kbits/s speed=0.0221x    frame=  420 fps=1.4 q=43.0 size=    8034kB time=00:00:06.84 bitrate=9620.1kbits/s speed=0.0221x    frame=  421 fps=1.4 q=43.0 size=    8034kB time=00:00:06.86 bitrate=9592.0kbits/s speed=0.022x    frame=  422 fps=1.4 q=43.0 size=    8034kB time=00:00:06.88 bitrate=9564.1kbits/s speed=0.0221x    frame=  424 fps=1.3 q=43.0 size=    8034kB time=00:00:06.92 bitrate=9508.9kbits/s speed=0.022x    frame=  425 fps=1.3 q=43.0 size=    8034kB time=00:00:06.94 bitrate=9481.5kbits/s speed=0.022x    frame=  428 fps=1.3 q=42.0 size=    8034kB time=00:00:07.00 bitrate=9400.2kbits/s speed=0.022x    frame=  429 fps=1.3 q=43.0 size=    8034kB time=00:00:07.02 bitrate=9373.4kbits/s speed=0.022x    frame=  430 fps=1.3 q=42.0 size=    8034kB time=00:00:07.04 bitrate=9346.8kbits/s speed=0.022x    frame=  433 fps=1.3 q=42.0 size=    8034kB time=00:00:07.10 bitrate=9267.8kbits/s speed=0.0221x    frame=  434 fps=1.3 q=42.0 size=    8034kB time=00:00:07.12 bitrate=9241.8kbits/s speed=0.022x    frame=  435 fps=1.3 q=42.0 size=    8034kB time=00:00:07.14 bitrate=9215.9kbits/s speed=0.022x    frame=  437 fps=1.3 q=42.0 size=    8034kB time=00:00:07.18 bitrate=9164.6kbits/s speed=0.0221x    frame=  438 fps=1.3 q=42.0 size=    8034kB time=00:00:07.20 bitrate=9139.1kbits/s speed=0.0221x    frame=  439 fps=1.3 q=42.0 size=    8034kB time=00:00:07.22 bitrate=9113.8kbits/s speed=0.0221x    frame=  440 fps=1.3 q=42.0 size=    8034kB time=00:00:07.24 bitrate=9088.6kbits/s speed=0.0221x    frame=  441 fps=1.3 q=42.0 size=    8034kB time=00:00:07.26 bitrate=9063.6kbits/s speed=0.022x    frame=  442 fps=1.3 q=42.0 size=    8034kB time=00:00:07.28 bitrate=9038.7kbits/s speed=0.022x    frame=  443 fps=1.3 q=42.0 size=    8034kB time=00:00:07.30 bitrate=9013.9kbits/s speed=0.022x    frame=  445 fps=1.3 q=42.0 size=    8034kB time=00:00:07.34 bitrate=8964.8kbits/s speed=0.022x    frame=  446 fps=1.3 q=42.0 size=    8034kB time=00:00:07.36 bitrate=8940.5kbits/s speed=0.022x    frame=  448 fps=1.3 q=42.0 size=    8034kB time=00:00:07.40 bitrate=8892.2kbits/s speed=0.0221x    frame=  449 fps=1.3 q=42.0 size=    8034kB time=00:00:07.42 bitrate=8868.2kbits/s speed=0.022x    frame=  450 fps=1.3 q=42.0 size=    8034kB time=00:00:07.44 bitrate=8844.4kbits/s speed=0.022x    frame=  451 fps=1.3 q=42.0 size=    8034kB time=00:00:07.46 bitrate=8820.6kbits/s speed=0.022x    frame=  453 fps=1.3 q=42.0 size=    8034kB time=00:00:07.50 bitrate=8773.6kbits/s speed=0.022x    frame=  454 fps=1.3 q=42.0 size=    8034kB time=00:00:07.52 bitrate=8750.3kbits/s speed=0.022x    frame=  455 fps=1.3 q=42.0 size=    8034kB time=00:00:07.54 bitrate=8727.1kbits/s speed=0.022x    frame=  457 fps=1.3 q=42.0 size=    8034kB time=00:00:07.58 bitrate=8681.0kbits/s speed=0.022x    frame=  458 fps=1.3 q=42.0 size=    8034kB time=00:00:07.60 bitrate=8658.2kbits/s speed=0.022x    frame=  459 fps=1.3 q=42.0 size=    8034kB time=00:00:07.62 bitrate=8635.5kbits/s speed=0.022x    frame=  461 fps=1.3 q=42.0 size=    8034kB time=00:00:07.66 bitrate=8590.4kbits/s speed=0.022x    frame=  462 fps=1.3 q=42.0 size=    8034kB time=00:00:07.68 bitrate=8568.0kbits/s speed=0.022x    frame=  463 fps=1.3 q=42.0 size=    8034kB time=00:00:07.70 bitrate=8545.8kbits/s speed=0.022x    frame=  465 fps=1.3 q=42.0 size=    8034kB time=00:00:07.74 bitrate=8501.6kbits/s speed=0.022x    frame=  467 fps=1.3 q=42.0 size=    8034kB time=00:00:07.78 bitrate=8457.9kbits/s speed=0.022x    frame=  468 fps=1.3 q=42.0 size=    8034kB time=00:00:07.80 bitrate=8436.2kbits/s speed=0.0219x    frame=  469 fps=1.3 q=42.0 size=    8034kB time=00:00:07.82 bitrate=8414.6kbits/s speed=0.0219x    frame=  471 fps=1.3 q=42.0 size=    8034kB time=00:00:07.86 bitrate=8371.8kbits/s speed=0.022x    frame=  473 fps=1.3 q=42.0 size=    8034kB time=00:00:07.90 bitrate=8329.4kbits/s speed=0.022x    frame=  474 fps=1.3 q=42.0 size=    8034kB time=00:00:07.92 bitrate=8308.4kbits/s speed=0.0219x    frame=  475 fps=1.3 q=42.0 size=    8034kB time=00:00:07.94 bitrate=8287.5kbits/s speed=0.0219x    frame=  478 fps=1.3 q=42.0 size=    8034kB time=00:00:08.00 bitrate=8225.3kbits/s speed=0.022x    frame=  479 fps=1.3 q=42.0 size=    8034kB time=00:00:08.02 bitrate=8204.8kbits/s speed=0.022x    frame=  480 fps=1.3 q=42.0 size=    8034kB time=00:00:08.04 bitrate=8184.4kbits/s speed=0.022x    frame=  481 fps=1.3 q=42.0 size=    8034kB time=00:00:08.06 bitrate=8164.1kbits/s speed=0.022x    frame=  482 fps=1.3 q=42.0 size=    8034kB time=00:00:08.08 bitrate=8143.9kbits/s speed=0.0219x    frame=  483 fps=1.3 q=42.0 size=    8034kB time=00:00:08.10 bitrate=8123.8kbits/s speed=0.0219x    frame=  484 fps=1.3 q=42.0 size=    8034kB time=00:00:08.12 bitrate=8103.8kbits/s speed=0.0219x    frame=  486 fps=1.3 q=42.0 size=    8034kB time=00:00:08.16 bitrate=8064.1kbits/s speed=0.022x    frame=  487 fps=1.3 q=42.0 size=    8034kB time=00:00:08.18 bitrate=8044.4kbits/s speed=0.022x    frame=  488 fps=1.3 q=42.0 size=    8034kB time=00:00:08.20 bitrate=8024.7kbits/s speed=0.022x    frame=  489 fps=1.3 q=42.0 size=   13164kB time=00:00:08.22 bitrate=13117.5kbits/s speed=0.022x    frame=  490 fps=1.3 q=42.0 size=   13164kB time=00:00:08.24 bitrate=13085.7kbits/s speed=0.0219x    frame=  491 fps=1.3 q=42.0 size=   13164kB time=00:00:08.26 bitrate=13054.0kbits/s speed=0.0219x    frame=  493 fps=1.3 q=42.0 size=   13164kB time=00:00:08.30 bitrate=12991.1kbits/s speed=0.022x    frame=  494 fps=1.3 q=42.0 size=   13164kB time=00:00:08.32 bitrate=12959.9kbits/s speed=0.022x    frame=  495 fps=1.3 q=42.0 size=   13164kB time=00:00:08.34 bitrate=12928.8kbits/s speed=0.022x    frame=  496 fps=1.3 q=42.0 size=   13164kB time=00:00:08.36 bitrate=12897.9kbits/s speed=0.0219x    frame=  498 fps=1.3 q=42.0 size=   13164kB time=00:00:08.40 bitrate=12836.5kbits/s speed=0.0219x    frame=  499 fps=1.3 q=42.0 size=   13164kB time=00:00:08.42 bitrate=12806.0kbits/s speed=0.0219x    frame=  500 fps=1.3 q=42.0 size=   13164kB time=00:00:08.44 bitrate=12775.7kbits/s speed=0.0219x    frame=  500 fps=1.1 q=-1.0 Lsize=   15741kB time=00:00:09.94 bitrate=12971.3kbits/s speed=0.022x    
video:15736kB audio:0kB subtitle:0kB other streams:0kB global headers:0kB muxing overhead: 0.029118%
bench: utime=1748.812s
bench: maxrss=3270040kB
[libx264 @ 0x43191c0] frame I:2     Avg QP:33.77  size:492719
[libx264 @ 0x43191c0] frame P:114   Avg QP:43.52  size: 65965
[libx264 @ 0x43191c0] frame B:384   Avg QP:45.73  size: 19811
[libx264 @ 0x43191c0] consecutive B-frames:  0.4%  0.0%  1.2% 60.0% 30.0%  8.4%  0.0%  0.0%  0.0%
[libx264 @ 0x43191c0] mb I  I16..4: 14.0% 77.7%  8.3%
[libx264 @ 0x43191c0] mb P  I16..4:  1.4%  4.8%  0.0%  P16..4: 40.0%  5.1%  6.5%  0.0%  0.0%    skip:42.2%
[libx264 @ 0x43191c0] mb B  I16..4:  0.0%  0.1%  0.0%  B16..8: 43.5%  2.2%  0.2%  direct: 0.3%  skip:53.6%  L0:45.3% L1:54.0% BI: 0.7%
[libx264 @ 0x43191c0] final ratefactor: 34.36
[libx264 @ 0x43191c0] 8x8 transform intra:77.6% inter:85.7%
[libx264 @ 0x43191c0] direct mvs  spatial:99.2% temporal:0.8%
[libx264 @ 0x43191c0] coded y,uvDC,uvAC intra: 39.8% 49.7% 17.8% inter: 2.5% 3.7% 0.1%
[libx264 @ 0x43191c0] i16 v,h,dc,p: 34% 22%  8% 37%
[libx264 @ 0x43191c0] i8 v,h,dc,ddl,ddr,vr,hd,vl,hu:  7%  4%  4% 12% 16% 16% 15% 13% 12%
[libx264 @ 0x43191c0] i4 v,h,dc,ddl,ddr,vr,hd,vl,hu:  7%  4%  2% 12% 16% 16% 16% 13% 16%
[libx264 @ 0x43191c0] i8c dc,h,v,p: 45% 18% 18% 19%
[libx264 @ 0x43191c0] Weighted P-Frames: Y:1.8% UV:0.9%
[libx264 @ 0x43191c0] ref P L0: 54.3%  6.9% 13.0%  4.1%  3.7%  3.2%  3.3%  1.7%  1.5%  1.2%  1.2%  1.1%  1.2%  1.2%  1.5%  1.0%
[libx264 @ 0x43191c0] ref B L0: 93.4%  3.3%  1.3%  0.4%  0.3%  0.3%  0.2%  0.1%  0.1%  0.1%  0.1%  0.1%  0.1%  0.1%  0.1%
[libx264 @ 0x43191c0] ref B L1: 98.9%  1.1%
[libx264 @ 0x43191c0] kb/s:12890.42
